<svg xmlns="http://www.w3.org/2000/svg" viewBox="0 0 24 24" fill="currentColor" class="w-6 h-6">
  <path d="M10.327 2.64a1 1 0 0 1 .986-.64h1.374a1 1 0 0 1 .986.64l.37 1.006a7.98 7.98 0 0 1 2.18.9l.992-.41a1 1 0 0 1 1.27.46l.687 1.19a1 1 0 0 1-.228 1.26l-.806.686c.219.5.384 1.025.49 1.567l1.05.171a1 1 0 0 1 .85.99v1.37a1 1 0 0 1-.85.99l-1.05.172a7.97 7.97 0 0 1-.49 1.567l.806.686a1 1 0 0 1 .228 1.26l-.687 1.19a1 1 0 0 1-1.27.46l-.992-.41a7.98 7.98 0 0 1-2.18.9l-.37 1.006a1 1 0 0 1-.986.64h-1.374a1 1 0 0 1-.986-.64l-.37-1.006a7.98 7.98 0 0 1-2.18-.9l-.992.41a1 1 0 0 1-1.27-.46l-.687-1.19a1 1 0 0 1 .228-1.26l.806-.686a7.97 7.97 0 0 1-.49-1.567l-1.05-.171a1 1 0 0 1-.85-.99v-1.37a1 1 0 0 1 .85-.99l1.05-.172c.106-.542.27-1.067.49-1.567l-.806-.686a1 1 0 0 1-.228-1.26l.687-1.19a1 1 0 0 1 1.27-.46l.992.41a7.98 7.98 0 0 1 2.18-.9l.37-1.006ZM12 9a3 3 0 1 0 0 6 3 3 0 0 0 0-6Z"></path>
</svg>
