<svg xmlns="http://www.w3.org/2000/svg" fill="none" viewBox="0 0 24 24" stroke="currentColor" stroke-width="2" class="w-6 h-6">
  <path stroke-linecap="round" stroke-linejoin="round" d="M11.983 13.905a1.905 1.905 0 1 0 0-3.81 1.905 1.905 0 0 0 0 3.81z"></path>
  <path stroke-linecap="round" stroke-linejoin="round" d="M20.098 12a8.11 8.11 0 0 0-.151-1.536l2.125-1.66a.477.477 0 0 0 .113-.61l-2.01-3.477a.477.477 0 0 0-.577-.208l-2.503 1a7.975 7.975 0 0 0-2.652-1.537l-.379-2.647a.477.477 0 0 0-.471-.407h-4.02a.477.477 0 0 0-.471.407l-.379 2.647a7.975 7.975 0 0 0-2.652 1.537l-2.503-1a.477.477 0 0 0-.577.208l-2.01 3.477a.477.477 0 0 0 .113.61l2.125 1.66A8.11 8.11 0 0 0 3.902 12c0 .52.05 1.026.151 1.536l-2.125 1.66a.477.477 0 0 0-.113.61l2.01 3.477c.132.227.41.318.577.208l2.503-1a7.975 7.975 0 0 0 2.652 1.537l.379 2.647c.035.239.236.407.471.407h4.02c.235 0 .436-.168.471-.407l.379-2.647a7.975 7.975 0 0 0 2.652-1.537l2.503 1c.167.11.445.019.577-.208l2.01-3.477a.477.477 0 0 0-.113-.61l-2.125-1.66c.101-.51.151-1.016.151-1.536z"></path>
</svg>
